<svg xmlns="http://www.w3.org/2000/svg" viewBox="0 0 960 390" width="960" height="390">
<title>White-view aggregate MAE and Top3 comparison</title>
<desc>Five ordinal game aggregates; no per-position values.</desc>
<rect width="960" height="390" fill="white"/>
<style>text{font-family:sans-serif;font-size:12px;fill:#172033}.base{fill:#64748b}.candidate{fill:#0369a1}.axis{stroke:#64748b}</style>
<text x="55" y="26">MAE (cp)</text>
<line class="axis" x1="55" y1="60" x2="55" y2="320"/>
<line class="axis" x1="55" y1="320" x2="450" y2="320"/>
<rect class="base" x="73" y="262.744" width="20" height="57.256"/>
<text x="73" y="257.744" font-size="9" style="font-size:9px">367.4</text>
<rect class="candidate" x="96" y="266.918" width="20" height="53.082"/>
<text x="96" y="249.918" font-size="9" style="font-size:9px">340.6</text>
<text x="83" y="342">G1</text>
<rect class="base" x="150" y="83.995" width="20" height="236.005"/>
<text x="150" y="78.995" font-size="9" style="font-size:9px">1514.4</text>
<rect class="candidate" x="173" y="79.259" width="20" height="240.741"/>
<text x="173" y="62.259" font-size="9" style="font-size:9px">1544.8</text>
<text x="160" y="342">G2</text>
<rect class="base" x="227" y="151.805" width="20" height="168.195"/>
<text x="227" y="146.805" font-size="9" style="font-size:9px">1079.3</text>
<rect class="candidate" x="250" y="148.525" width="20" height="171.475"/>
<text x="250" y="131.525" font-size="9" style="font-size:9px">1100.3</text>
<text x="237" y="342">G3</text>
<rect class="base" x="304" y="129.460" width="20" height="190.540"/>
<text x="304" y="124.460" font-size="9" style="font-size:9px">1222.7</text>
<rect class="candidate" x="327" y="130.332" width="20" height="189.668"/>
<text x="327" y="113.332" font-size="9" style="font-size:9px">1217.1</text>
<text x="314" y="342">G4</text>
<rect class="base" x="381" y="126.977" width="20" height="193.023"/>
<text x="381" y="121.977" font-size="9" style="font-size:9px">1238.6</text>
<rect class="candidate" x="404" y="129.236" width="20" height="190.764"/>
<text x="404" y="112.236" font-size="9" style="font-size:9px">1224.1</text>
<text x="391" y="342">G5</text>
<text x="535" y="26">Top3 (%)</text>
<line class="axis" x1="535" y1="60" x2="535" y2="320"/>
<line class="axis" x1="535" y1="320" x2="930" y2="320"/>
<rect class="base" x="553" y="168.333" width="20" height="151.667"/>
<text x="553" y="163.333" font-size="9" style="font-size:9px">58.3</text>
<rect class="candidate" x="576" y="174.524" width="20" height="145.476"/>
<text x="576" y="157.524" font-size="9" style="font-size:9px">56.0</text>
<text x="563" y="342">G1</text>
<rect class="base" x="630" y="143.115" width="20" height="176.885"/>
<text x="630" y="138.115" font-size="9" style="font-size:9px">68.0</text>
<rect class="candidate" x="653" y="138.852" width="20" height="181.148"/>
<text x="653" y="121.852" font-size="9" style="font-size:9px">69.7</text>
<text x="640" y="342">G2</text>
<rect class="base" x="707" y="207.402" width="20" height="112.598"/>
<text x="707" y="202.402" font-size="9" style="font-size:9px">43.3</text>
<rect class="candidate" x="730" y="209.449" width="20" height="110.551"/>
<text x="730" y="192.449" font-size="9" style="font-size:9px">42.5</text>
<text x="717" y="342">G3</text>
<rect class="base" x="784" y="182.500" width="20" height="137.500"/>
<text x="784" y="177.500" font-size="9" style="font-size:9px">52.9</text>
<rect class="candidate" x="807" y="185.000" width="20" height="135.000"/>
<text x="807" y="168.000" font-size="9" style="font-size:9px">51.9</text>
<text x="794" y="342">G4</text>
<rect class="base" x="861" y="178.596" width="20" height="141.404"/>
<text x="861" y="173.596" font-size="9" style="font-size:9px">54.4</text>
<rect class="candidate" x="884" y="169.474" width="20" height="150.526"/>
<text x="884" y="152.474" font-size="9" style="font-size:9px">57.9</text>
<text x="871" y="342">G5</text>
<rect class="base" x="310" y="362" width="12" height="12"/><text x="328" y="372">new-binary material fallback</text>
<rect class="candidate" x="550" y="362" width="12" height="12"/><text x="568" y="372">candidate</text>
</svg>
